<?xml version="1.0" encoding="UTF-8" standalone="no"?><!-- Generator: Gravit.io --><svg xmlns="http://www.w3.org/2000/svg" xmlns:xlink="http://www.w3.org/1999/xlink" style="isolation:isolate" viewBox="0 0 1024 1024" width="1024pt" height="1024pt"><defs><clipPath id="_clipPath_PqIJwtu2JqVAqPoDqVPWE14pkCWs5WZy"><rect width="1024" height="1024"/></clipPath></defs><g clip-path="url(#_clipPath_PqIJwtu2JqVAqPoDqVPWE14pkCWs5WZy)"><g><path d=" M 184.797 884.915 L 270.183 884.915 L 270.183 311 L 66 502.887 L 125.399 558.708 L 184.797 502.887 L 184.797 884.915 Z " fill="rgb(255,255,255)"/><path d=" M 839.186 884.915 L 753.8 884.915 L 753.8 311 L 957.983 502.887 L 898.584 558.708 L 839.186 502.887 L 839.186 884.915 Z " fill="rgb(255,255,255)"/><path d=" M 382.274 414.694 L 510.081 309.342 L 642.078 414.694 L 510.081 521.772 L 382.274 414.694 Z " fill="rgb(255,255,255)"/><path d=" M 372.046 345.031 L 510.081 241.365 L 650.261 345.031 L 650.261 241.365 L 510.081 136 L 372.046 241.365 L 372.046 345.031 Z " fill="rgb(255,255,255)"/><path d=" M 372.046 678.969 L 510.081 782.635 L 650.261 678.969 L 650.261 782.635 L 510.081 888 L 372.046 782.635 L 372.046 678.969 Z " fill="rgb(255,255,255)"/><path d=" M 370 445.297 L 370 588.05 L 490.696 688.316 L 492.742 543.864 L 370 445.297 Z " fill="rgb(255,255,255)"/><path d=" M 648.594 443.026 L 650.548 585.769 L 531.232 687.169 L 527.209 542.746 L 648.594 443.026 Z " fill="rgb(255,255,255)"/></g></g></svg>