<?xml version="1.0" encoding="UTF-8" standalone="no"?><!-- Generator: Gravit.io --><svg xmlns="http://www.w3.org/2000/svg" xmlns:xlink="http://www.w3.org/1999/xlink" style="isolation:isolate" viewBox="576.676 364.767 256.641 256.462" width="256.641pt" height="256.462pt"><defs><clipPath id="_clipPath_iJ30ndFdewRrjCO152W2woeeoJKDX3RD"><rect x="576.676" y="364.767" width="256.641" height="256.462"/></clipPath></defs><g clip-path="url(#_clipPath_iJ30ndFdewRrjCO152W2woeeoJKDX3RD)"><g><path d=" M 603.581 364.927 L 755.581 364.927 L 797.581 364.927 C 801.874 364.636 806.225 364.7 810.47 365.476 C 828.875 368.837 834.61 386.884 833.081 403.427 L 833.081 403.427 L 833.081 441.427 L 833.081 594.427 C 832.648 597.306 831.956 600.156 830.905 602.876 C 824.996 618.158 809.641 622.498 794.581 620.927 L 794.581 620.927 L 756.581 620.927 L 602.581 620.927 C 590.938 618.766 580.649 611.048 577.752 599.193 C 576.417 593.73 576.488 587.984 577.081 582.427 L 577.081 582.427 L 577.081 544.427 L 577.081 391.427 C 579.193 377.393 588.967 366.072 603.581 364.927 L 603.581 364.927 Z " fill="rgb(154,160,168)"/><rect x="603.996" y="393.998" width="202" height="198" transform="matrix(1,0,0,1,0,0)" fill="rgb(255,255,255)"/><path d=" M 732.831 486.267 L 732.831 486.267 L 782.331 551.767 L 628.331 551.767 L 628.331 551.767 L 665.831 503.267 L 665.831 503.267 L 693.831 535.267 L 693.831 535.267 L 732.831 486.267 Z " fill="rgb(154,160,168)"/></g></g></svg>